/* XPM */
static const char * xhk_xpm[] = {
"48 48 166 2",
"  	c #9C716E",
". 	c #846562",
"+ 	c #6D5958",
"@ 	c #6C5857",
"# 	c #6C5756",
"$ 	c #6B5655",
"% 	c #6A5554",
"& 	c #695453",
"* 	c #775B59",
"= 	c #D8CDCC",
"- 	c #E6DFDE",
"; 	c #C9B9B8",
"> 	c #976E6C",
", 	c #554F4F",
"' 	c #494949",
") 	c #474747",
"! 	c #464646",
"~ 	c #434343",
"{ 	c #414141",
"] 	c #404040",
"^ 	c #866461",
"/ 	c #B9A1A0",
"( 	c #FFFEFE",
"_ 	c #FFFFFF",
": 	c #FCFCFC",
"< 	c #B09391",
"[ 	c #876664",
"} 	c #4A4A4A",
"| 	c #444444",
"1 	c #424242",
"2 	c #4C4443",
"3 	c #976E6B",
"4 	c #DACFCF",
"5 	c #EEE9E9",
"6 	c #9D7370",
"7 	c #6D5957",
"8 	c #484848",
"9 	c #3E3E3E",
"0 	c #695351",
"a 	c #A17B78",
"b 	c #F4F1F1",
"c 	c #D1C3C2",
"d 	c #524C4C",
"e 	c #454545",
"f 	c #3F3F3F",
"g 	c #3C3C3C",
"h 	c #866361",
"i 	c #FEFEFE",
"j 	c #876563",
"k 	c #3D3D3D",
"l 	c #4A4241",
"m 	c #EDE9E9",
"n 	c #685250",
"o 	c #A17A78",
"p 	c #514A4A",
"q 	c #3A3A3A",
"r 	c #866360",
"s 	c #866562",
"t 	c #483F3F",
"u 	c #DAD0CF",
"v 	c #986E6C",
"w 	c #946C69",
"x 	c #956C6A",
"y 	c #956D6A",
"z 	c #956D6B",
"A 	c #966E6B",
"B 	c #976F6C",
"C 	c #6B5654",
"D 	c #3B3B3B",
"E 	c #383838",
"F 	c #67504F",
"G 	c #926B68",
"H 	c #383333",
"I 	c #303030",
"J 	c #333333",
"K 	c #363636",
"L 	c #4D4D4D",
"M 	c #4F4F4F",
"N 	c #525252",
"O 	c #545454",
"P 	c #695C5B",
"Q 	c #4E4747",
"R 	c #393939",
"S 	c #856260",
"T 	c #7B5B59",
"U 	c #323232",
"V 	c #353535",
"W 	c #373737",
"X 	c #4C4C4C",
"Y 	c #515151",
"Z 	c #535353",
"` 	c #685B5B",
" .	c #866462",
"..	c #463D3C",
"+.	c #EDE9E8",
"@.	c #5A4645",
"#.	c #313131",
"$.	c #343434",
"%.	c #4B4B4B",
"&.	c #4E4E4E",
"*.	c #685B5A",
"=.	c #664E4D",
"-.	c #3A3535",
";.	c #505050",
">.	c #675A5A",
",.	c #4C4444",
"'.	c #85615F",
").	c #7F5E5B",
"!.	c #584645",
"~.	c #594847",
"{.	c #5A4948",
"].	c #5C4B4A",
"^.	c #5D4C4B",
"/.	c #5E4E4D",
"(.	c #60504F",
"_.	c #625251",
":.	c #635453",
"<.	c #655655",
"[.	c #665857",
"}.	c #685959",
"|.	c #755F5E",
"1.	c #856361",
"2.	c #423938",
"3.	c #976D6B",
"4.	c #4B4444",
"5.	c #886461",
"6.	c #594746",
"7.	c #5A4947",
"8.	c #5B4A49",
"9.	c #5C4C4B",
"0.	c #5F4F4E",
"a.	c #615251",
"b.	c #625352",
"c.	c #645554",
"d.	c #655756",
"e.	c #745E5D",
"f.	c #695452",
"g.	c #664E4C",
"h.	c #5B4847",
"i.	c #453C3B",
"j.	c #936B68",
"k.	c #3D3939",
"l.	c #645655",
"m.	c #4E4746",
"n.	c #7C5C5A",
"o.	c #635554",
"p.	c #67504E",
"q.	c #F2EFEF",
"r.	c #5C4948",
"s.	c #625554",
"t.	c #463E3D",
"u.	c #A27C7A",
"v.	c #996F6C",
"w.	c #504A49",
"x.	c #68514F",
"y.	c #866563",
"z.	c #494140",
"A.	c #524C4B",
"B.	c #695251",
"C.	c #4B4343",
"D.	c #554F4E",
"E.	c #B9A19F",
"F.	c #6B5756",
"G.	c #6A5553",
"H.	c #D0C2C1",
"I.	c #D2C4C3",
"                                                                                                ",
"                                                                                                ",
"                                                                                                ",
"                                                                                                ",
"                                                                                                ",
"                                                                                                ",
"                                                                                                ",
"                                                                                                ",
"                                                                                                ",
"      . + @ # $ % & *     = - - - - - - ;                                                       ",
"      > , ' ) ! ~ { ] ^   / ( _ _ _ _ _ : <                                                     ",
"        [ } ) ! | 1 ] 2 3   4 _ _ _ _ _ _ 5 6                                                   ",
"          7 8 ! | 1 ] 9 0   a b _ _ _ _ _ _ c                                                   ",
"          3 d ) e 1 { f g h   / i _ _ _ _ _ : <                                                 ",
"            j ) e ~ { f k l 3   4 _ _ _ _ _ _ m 6                                               ",
"              # e ~ { f k g n   o b _ _ _ _ _ _ c                                               ",
"              3 p | { ] 9 g q r   / i _ _ _ _ _ : <                                             ",
"                s | 1 ] 9 g q t 3   u _ _ _ _ _ _ m 6   v w w w w w x x y y y z z A A A B       ",
"                  C 1 { 9 g D E F   a b _ _ _ _ _ _ c   G H I J K E D 9 { | ) } L M N O P       ",
"                  3 Q { f g D R K S   / i _ _ _ _ _ : <   T I U V W D k ] ~ ! ' X M Y Z `       ",
"                     .{ f g D R K ..3   4 _ _ _ _ _ _ +.6   @.#.$.W q g f 1 ! 8 %.&.Y N *.      ",
"                      & f k D R K V =.  o b _ _ _ _ _ _ c   G -.$.K R g 9 { | ) } L ;.N >.      ",
"                      3 ,.k D R K V U '.  / i _ _ _ _ _ : <   ).!.~.{.].^./.(._.:.<.[.}.|.      ",
"                        1.k D R K V U 2.3.  u _ _ _ _ _ _ m 6                                   ",
"                        1.k D R K $.U 2.3.  u _ _ _ _ _ _ _ c                                   ",
"                      3 4.g D E K $.#.'.  / ( _ _ _ _ _ _ _ : <   5.6.7.8.9./.0.a.b.c.d.e.      ",
"                      f.9 g D E K $.g.  o b _ _ _ _ _ _ _ _ _ m 6   h.K R g 9 { | ) } L d.      ",
"                    ^ { 9 g q E K i.3   u _ _ _ _ _ _ _ _ _ _ _ c   j.k.W q k ] ~ ! ' X l.      ",
"                  3 m.] 9 g q W V S   / i _ _ _ _ _ _ _ _ _ _ _ : <   n.K R g 9 { | ) } o.      ",
"                  % 1 ] k g R W p.  a b _ _ _ _ _ _ q._ _ _ _ _ _ 5 6   r.W q k ] ~ ! ' s.      ",
"                s ~ { f k D R t.3   u _ _ _ _ _ _ m u.b _ _ _ _ _ _ c   v.w w x y y y y 3       ",
"              3 w.~ { f k D E S   / i _ _ _ _ _ : <   / i _ _ _ _ _ : <                         ",
"              # e ~ { f g q x.  o b _ _ _ _ _ _ c       4 _ _ _ _ _ _ m 6                       ",
"            y.) e 1 ] 9 g z.3   4 _ _ _ _ _ _ m 6       o b _ _ _ _ _ _ c                       ",
"          3 A.! | 1 ] 9 g h   / i _ _ _ _ _ : <           / i _ _ _ _ _ : <                     ",
"          7 ) ! | { ] k B.  a b _ _ _ _ _ _ c               4 _ _ _ _ _ _ +.6                   ",
"        [ ' ) ! ~ { f C.3   4 _ _ _ _ _ _ 5 6               o b _ _ _ _ _ _ c                   ",
"      3 D.' ) e ~ { f ^   / ( _ _ _ _ _ : <                   E.i _ _ _ _ _ : <                 ",
"      . + @ F.$ G.f.*     = - - - - - - ;                       H.- - - - - - I.                ",
"                                                                                                ",
"                                                                                                ",
"                                                                                                ",
"                                                                                                ",
"                                                                                                ",
"                                                                                                ",
"                                                                                                ",
"                                                                                                ",
"                                                                                                "};
